ply
format ascii 1.0
element vertex 8
property float x
property float y
property float z
element face 12
property list uchar int vertex_indices
end_header
120.000000 100.000000 0.000000
180.000000 100.000000 0.000000
180.000000 140.000000 0.000000
120.000000 140.000000 0.000000
120.000000 100.000000 25.000000
180.000000 100.000000 25.000000
180.000000 140.000000 25.000000
120.000000 140.000000 25.000000
3 0 1 2
3 0 2 3
3 4 6 5
3 4 7 6
3 3 2 6
3 3 6 7
3 1 0 4
3 1 4 5
3 0 3 7
3 0 7 4
3 2 1 5
3 2 5 6
